solid "model"; Produced by pycam (v0.6.1), 2017-12-06
facet normal 1.000000 0.000000 0.000000
  outer loop
    vertex 0.275591 0.275591 0.000000
    vertex 0.275591 1.338583 -0.039370
    vertex 0.275591 1.338583 0.000000
  endloop
endfacet
facet normal 1.000000 0.000000 0.000000
  outer loop
    vertex 0.275591 1.338583 -0.039370
    vertex 0.275591 0.275591 0.000000
    vertex 0.275591 0.275591 -0.039370
  endloop
endfacet
facet normal -1.000000 0.000000 0.000000
  outer loop
    vertex 2.519685 0.826772 -0.039370
    vertex 2.519685 1.220472 0.000000
    vertex 2.519685 1.220472 -0.039370
  endloop
endfacet
facet normal -1.000000 0.000000 0.000000
  outer loop
    vertex 2.519685 1.220472 0.000000
    vertex 2.519685 0.826772 -0.039370
    vertex 2.519685 0.826772 0.000000
  endloop
endfacet
facet normal 0.000000 -1.000000 0.000000
  outer loop
    vertex 1.771654 1.220472 -0.039370
    vertex 2.519685 1.220472 0.000000
    vertex 1.771654 1.220472 0.000000
  endloop
endfacet
facet normal 0.000000 -1.000000 0.000000
  outer loop
    vertex 2.519685 1.220472 0.000000
    vertex 1.771654 1.220472 -0.039370
    vertex 2.519685 1.220472 -0.039370
  endloop
endfacet
facet normal 0.000000 1.000000 0.000000
  outer loop
    vertex 2.519685 0.826772 -0.039370
    vertex 2.204724 0.826772 0.000000
    vertex 2.519685 0.826772 0.000000
  endloop
endfacet
facet normal 0.000000 1.000000 0.000000
  outer loop
    vertex 2.204724 0.826772 0.000000
    vertex 2.519685 0.826772 -0.039370
    vertex 2.204724 0.826772 -0.039370
  endloop
endfacet
facet normal -1.000000 0.000000 0.000000
  outer loop
    vertex 2.204724 0.433071 -0.039370
    vertex 2.204724 0.826772 0.000000
    vertex 2.204724 0.826772 -0.039370
  endloop
endfacet
facet normal -1.000000 0.000000 0.000000
  outer loop
    vertex 2.204724 0.826772 0.000000
    vertex 2.204724 0.433071 -0.039370
    vertex 2.204724 0.433071 0.000000
  endloop
endfacet
facet normal 0.000000 1.000000 0.000000
  outer loop
    vertex 2.204724 0.433071 -0.039370
    vertex 1.771654 0.433071 0.000000
    vertex 2.204724 0.433071 0.000000
  endloop
endfacet
facet normal 0.000000 1.000000 0.000000
  outer loop
    vertex 1.771654 0.433071 0.000000
    vertex 2.204724 0.433071 -0.039370
    vertex 1.771654 0.433071 -0.039370
  endloop
endfacet
facet normal -1.000000 0.000000 0.000000
  outer loop
    vertex 1.771654 0.275591 -0.039370
    vertex 1.771654 0.433071 0.000000
    vertex 1.771654 0.433071 -0.039370
  endloop
endfacet
facet normal -1.000000 0.000000 0.000000
  outer loop
    vertex 1.771654 0.433071 0.000000
    vertex 1.771654 0.275591 -0.039370
    vertex 1.771654 0.275591 0.000000
  endloop
endfacet
facet normal -1.000000 0.000000 0.000000
  outer loop
    vertex 1.771654 1.220472 -0.039370
    vertex 1.771654 1.338583 0.000000
    vertex 1.771654 1.338583 -0.039370
  endloop
endfacet
facet normal -1.000000 0.000000 0.000000
  outer loop
    vertex 1.771654 1.338583 0.000000
    vertex 1.771654 1.220472 -0.039370
    vertex 1.771654 1.220472 0.000000
  endloop
endfacet
facet normal 0.000000 -1.000000 0.000000
  outer loop
    vertex 0.275591 1.338583 -0.039370
    vertex 1.771654 1.338583 0.000000
    vertex 0.275591 1.338583 0.000000
  endloop
endfacet
facet normal 0.000000 -1.000000 0.000000
  outer loop
    vertex 1.771654 1.338583 0.000000
    vertex 0.275591 1.338583 -0.039370
    vertex 1.771654 1.338583 -0.039370
  endloop
endfacet
facet normal 0.000000 1.000000 0.000000
  outer loop
    vertex 1.771654 0.275591 -0.039370
    vertex 0.275591 0.275591 0.000000
    vertex 1.771654 0.275591 0.000000
  endloop
endfacet
facet normal 0.000000 1.000000 0.000000
  outer loop
    vertex 0.275591 0.275591 0.000000
    vertex 1.771654 0.275591 -0.039370
    vertex 0.275591 0.275591 -0.039370
  endloop
endfacet
facet normal -1.000000 0.000000 0.000000
  outer loop
    vertex 0.000000 0.000000 -0.039370
    vertex 0.000000 1.574803 0.000000
    vertex 0.000000 1.574803 -0.039370
  endloop
endfacet
facet normal -1.000000 0.000000 0.000000
  outer loop
    vertex 0.000000 1.574803 0.000000
    vertex 0.000000 0.000000 -0.039370
    vertex 0.000000 0.000000 0.000000
  endloop
endfacet
facet normal 0.000000 0.000000 1.000000
  outer loop
    vertex 2.519685 0.826772 0.000000
    vertex 3.543307 1.574803 0.000000
    vertex 2.519685 1.220472 0.000000
  endloop
endfacet
facet normal 0.000000 0.000000 1.000000
  outer loop
    vertex 3.543307 1.574803 0.000000
    vertex 1.771654 1.338583 0.000000
    vertex 2.519685 1.220472 0.000000
  endloop
endfacet
facet normal 0.000000 0.000000 1.000000
  outer loop
    vertex 0.000000 1.574803 0.000000
    vertex 1.771654 1.338583 0.000000
    vertex 3.543307 1.574803 0.000000
  endloop
endfacet
facet normal 0.000000 0.000000 1.000000
  outer loop
    vertex 0.275591 1.338583 0.000000
    vertex 0.000000 1.574803 0.000000
    vertex 0.275591 0.275591 0.000000
  endloop
endfacet
facet normal 0.000000 0.000000 1.000000
  outer loop
    vertex 1.771654 1.338583 0.000000
    vertex 0.000000 1.574803 0.000000
    vertex 0.275591 1.338583 0.000000
  endloop
endfacet
facet normal 0.000000 0.000000 1.000000
  outer loop
    vertex 3.543307 1.574803 0.000000
    vertex 2.519685 0.826772 0.000000
    vertex 3.543307 0.000000 0.000000
  endloop
endfacet
facet normal 0.000000 0.000000 1.000000
  outer loop
    vertex 2.204724 0.433071 0.000000
    vertex 2.519685 0.826772 0.000000
    vertex 2.204724 0.826772 0.000000
  endloop
endfacet
facet normal 0.000000 0.000000 1.000000
  outer loop
    vertex 2.519685 0.826772 0.000000
    vertex 2.204724 0.433071 0.000000
    vertex 3.543307 0.000000 0.000000
  endloop
endfacet
facet normal 0.000000 0.000000 1.000000
  outer loop
    vertex 1.771654 0.275591 0.000000
    vertex 2.204724 0.433071 0.000000
    vertex 1.771654 0.433071 0.000000
  endloop
endfacet
facet normal 0.000000 0.000000 1.000000
  outer loop
    vertex 2.204724 0.433071 0.000000
    vertex 1.771654 0.275591 0.000000
    vertex 3.543307 0.000000 0.000000
  endloop
endfacet
facet normal 0.000000 0.000000 1.000000
  outer loop
    vertex 0.000000 0.000000 0.000000
    vertex 1.771654 0.275591 0.000000
    vertex 0.275591 0.275591 0.000000
  endloop
endfacet
facet normal 0.000000 0.000000 1.000000
  outer loop
    vertex 1.771654 0.275591 0.000000
    vertex 0.000000 0.000000 0.000000
    vertex 3.543307 0.000000 0.000000
  endloop
endfacet
facet normal 0.000000 0.000000 1.000000
  outer loop
    vertex 0.000000 0.000000 0.000000
    vertex 0.275591 0.275591 0.000000
    vertex 0.000000 1.574803 0.000000
  endloop
endfacet
facet normal 0.000000 0.000000 1.000000
  outer loop
    vertex 2.519685 1.220472 0.000000
    vertex 1.771654 1.338583 0.000000
    vertex 1.771654 1.220472 0.000000
  endloop
endfacet
facet normal 1.000000 0.000000 0.000000
  outer loop
    vertex 3.543307 0.000000 0.000000
    vertex 3.543307 1.574803 -0.039370
    vertex 3.543307 1.574803 0.000000
  endloop
endfacet
facet normal 1.000000 0.000000 0.000000
  outer loop
    vertex 3.543307 1.574803 -0.039370
    vertex 3.543307 0.000000 0.000000
    vertex 3.543307 0.000000 -0.039370
  endloop
endfacet
facet normal 0.000000 1.000000 0.000000
  outer loop
    vertex 3.543307 1.574803 -0.039370
    vertex 0.000000 1.574803 0.000000
    vertex 3.543307 1.574803 0.000000
  endloop
endfacet
facet normal 0.000000 1.000000 0.000000
  outer loop
    vertex 0.000000 1.574803 0.000000
    vertex 3.543307 1.574803 -0.039370
    vertex 0.000000 1.574803 -0.039370
  endloop
endfacet
facet normal 0.000000 0.000000 -1.000000
  outer loop
    vertex 3.543307 0.000000 -0.039370
    vertex 2.519685 0.826772 -0.039370
    vertex 3.543307 1.574803 -0.039370
  endloop
endfacet
facet normal 0.000000 0.000000 -1.000000
  outer loop
    vertex 3.543307 0.000000 -0.039370
    vertex 2.204724 0.433071 -0.039370
    vertex 2.519685 0.826772 -0.039370
  endloop
endfacet
facet normal 0.000000 0.000000 -1.000000
  outer loop
    vertex 3.543307 0.000000 -0.039370
    vertex 1.771654 0.275591 -0.039370
    vertex 2.204724 0.433071 -0.039370
  endloop
endfacet
facet normal 0.000000 0.000000 -1.000000
  outer loop
    vertex 0.000000 0.000000 -0.039370
    vertex 1.771654 0.275591 -0.039370
    vertex 3.543307 0.000000 -0.039370
  endloop
endfacet
facet normal 0.000000 0.000000 -1.000000
  outer loop
    vertex 0.000000 1.574803 -0.039370
    vertex 0.275591 0.275591 -0.039370
    vertex 0.000000 0.000000 -0.039370
  endloop
endfacet
facet normal 0.000000 0.000000 -1.000000
  outer loop
    vertex 1.771654 0.275591 -0.039370
    vertex 0.000000 0.000000 -0.039370
    vertex 0.275591 0.275591 -0.039370
  endloop
endfacet
facet normal 0.000000 0.000000 -1.000000
  outer loop
    vertex 2.519685 1.220472 -0.039370
    vertex 3.543307 1.574803 -0.039370
    vertex 2.519685 0.826772 -0.039370
  endloop
endfacet
facet normal 0.000000 0.000000 -1.000000
  outer loop
    vertex 1.771654 1.338583 -0.039370
    vertex 2.519685 1.220472 -0.039370
    vertex 1.771654 1.220472 -0.039370
  endloop
endfacet
facet normal 0.000000 0.000000 -1.000000
  outer loop
    vertex 2.519685 1.220472 -0.039370
    vertex 1.771654 1.338583 -0.039370
    vertex 3.543307 1.574803 -0.039370
  endloop
endfacet
facet normal 0.000000 0.000000 -1.000000
  outer loop
    vertex 0.000000 1.574803 -0.039370
    vertex 1.771654 1.338583 -0.039370
    vertex 0.275591 1.338583 -0.039370
  endloop
endfacet
facet normal 0.000000 0.000000 -1.000000
  outer loop
    vertex 1.771654 1.338583 -0.039370
    vertex 0.000000 1.574803 -0.039370
    vertex 3.543307 1.574803 -0.039370
  endloop
endfacet
facet normal 0.000000 0.000000 -1.000000
  outer loop
    vertex 0.275591 0.275591 -0.039370
    vertex 0.000000 1.574803 -0.039370
    vertex 0.275591 1.338583 -0.039370
  endloop
endfacet
facet normal 0.000000 0.000000 -1.000000
  outer loop
    vertex 2.519685 0.826772 -0.039370
    vertex 2.204724 0.433071 -0.039370
    vertex 2.204724 0.826772 -0.039370
  endloop
endfacet
facet normal 0.000000 0.000000 -1.000000
  outer loop
    vertex 2.204724 0.433071 -0.039370
    vertex 1.771654 0.275591 -0.039370
    vertex 1.771654 0.433071 -0.039370
  endloop
endfacet
facet normal 0.000000 -1.000000 0.000000
  outer loop
    vertex 0.000000 0.000000 -0.039370
    vertex 3.543307 0.000000 0.000000
    vertex 0.000000 0.000000 0.000000
  endloop
endfacet
facet normal 0.000000 -1.000000 0.000000
  outer loop
    vertex 3.543307 0.000000 0.000000
    vertex 0.000000 0.000000 -0.039370
    vertex 3.543307 0.000000 -0.039370
  endloop
endfacet
endsolid
